<svg xmlns="http://www.w3.org/2000/svg" width="696" height="100" viewBox="0 0 696 100"><rect width="100%" height="100%" rx="16" fill="#0d1117"/><g><rect x="8" y="8" width="104" height="76" rx="12" fill="#202938" stroke="#f7df1e" stroke-width="2"/><rect x="35" y="15" width="50" height="36" rx="8" fill="#f7df1e" opacity=".18"/><text x="60" y="40" fill="#f7df1e" font-family="Arial,sans-serif" font-size="18" font-weight="700" text-anchor="middle">PHP</text><text x="60" y="69" fill="#dbeafe" font-family="Arial,sans-serif" font-size="11" text-anchor="middle">PHP</text></g><g><rect x="122" y="8" width="104" height="76" rx="12" fill="#202938" stroke="#3178c6" stroke-width="2"/><rect x="149" y="15" width="50" height="36" rx="8" fill="#3178c6" opacity=".18"/><text x="174" y="40" fill="#3178c6" font-family="Arial,sans-serif" font-size="18" font-weight="700" text-anchor="middle">BLA</text><text x="174" y="69" fill="#dbeafe" font-family="Arial,sans-serif" font-size="11" text-anchor="middle">Blade</text></g><g><rect x="236" y="8" width="104" height="76" rx="12" fill="#202938" stroke="#61dafb" stroke-width="2"/><rect x="263" y="15" width="50" height="36" rx="8" fill="#61dafb" opacity=".18"/><text x="288" y="40" fill="#61dafb" font-family="Arial,sans-serif" font-size="18" font-weight="700" text-anchor="middle">JS</text><text x="288" y="69" fill="#dbeafe" font-family="Arial,sans-serif" font-size="11" text-anchor="middle">JavaScript</text></g><g><rect x="350" y="8" width="104" height="76" rx="12" fill="#202938" stroke="#3776ab" stroke-width="2"/><rect x="377" y="15" width="50" height="36" rx="8" fill="#3776ab" opacity=".18"/><text x="402" y="40" fill="#3776ab" font-family="Arial,sans-serif" font-size="18" font-weight="700" text-anchor="middle">Py</text><text x="402" y="69" fill="#dbeafe" font-family="Arial,sans-serif" font-size="11" text-anchor="middle">Python</text></g><g><rect x="464" y="8" width="104" height="76" rx="12" fill="#202938" stroke="#a8b9cc" stroke-width="2"/><rect x="491" y="15" width="50" height="36" rx="8" fill="#a8b9cc" opacity=".18"/><text x="516" y="40" fill="#a8b9cc" font-family="Arial,sans-serif" font-size="18" font-weight="700" text-anchor="middle">H5</text><text x="516" y="69" fill="#dbeafe" font-family="Arial,sans-serif" font-size="11" text-anchor="middle">HTML</text></g><g><rect x="578" y="8" width="104" height="76" rx="12" fill="#202938" stroke="#f97316" stroke-width="2"/><rect x="605" y="15" width="50" height="36" rx="8" fill="#f97316" opacity=".18"/><text x="630" y="40" fill="#f97316" font-family="Arial,sans-serif" font-size="18" font-weight="700" text-anchor="middle">CSS</text><text x="630" y="69" fill="#dbeafe" font-family="Arial,sans-serif" font-size="11" text-anchor="middle">CSS</text></g></svg>