<svg xmlns="http://www.w3.org/2000/svg" width="420" height="200" viewBox="0 0 420 200">
        <rect width="100%" height="100%" fill="#0D1117" rx="10" ry="10"/>
        <text x="20" y="40" font-family="Segoe UI, Arial, sans-serif" font-size="24" fill="#FF6B6B" font-weight="bold">Top Languages</text>
        
            <text x="30" y="75" font-family="Segoe UI, Arial, sans-serif" font-size="16" fill="#C9D1D9">Python</text>
            <rect x="150" y="63" width="200" height="15" fill="#30363D" rx="5" ry="5"/>
            <rect x="150" y="63" width="100.0" height="15" fill="#58A6FF" rx="5" ry="5"/>
            <text x="360" y="75" font-family="Segoe UI, Arial, sans-serif" font-size="14" fill="#8B949E">50.0%</text>
            
            <text x="30" y="100" font-family="Segoe UI, Arial, sans-serif" font-size="16" fill="#C9D1D9">PHP</text>
            <rect x="150" y="88" width="200" height="15" fill="#30363D" rx="5" ry="5"/>
            <rect x="150" y="88" width="50.0" height="15" fill="#58A6FF" rx="5" ry="5"/>
            <text x="360" y="100" font-family="Segoe UI, Arial, sans-serif" font-size="14" fill="#8B949E">25.0%</text>
            
            <text x="30" y="125" font-family="Segoe UI, Arial, sans-serif" font-size="16" fill="#C9D1D9">JavaScript</text>
            <rect x="150" y="113" width="200" height="15" fill="#30363D" rx="5" ry="5"/>
            <rect x="150" y="113" width="25.0" height="15" fill="#58A6FF" rx="5" ry="5"/>
            <text x="360" y="125" font-family="Segoe UI, Arial, sans-serif" font-size="14" fill="#8B949E">12.5%</text>
            
            <text x="30" y="150" font-family="Segoe UI, Arial, sans-serif" font-size="16" fill="#C9D1D9">CSS</text>
            <rect x="150" y="138" width="200" height="15" fill="#30363D" rx="5" ry="5"/>
            <rect x="150" y="138" width="25.0" height="15" fill="#58A6FF" rx="5" ry="5"/>
            <text x="360" y="150" font-family="Segoe UI, Arial, sans-serif" font-size="14" fill="#8B949E">12.5%</text>
            
        </svg>